<?xml version="1.0" encoding="utf-8"?>
<!-- Generator: Adobe Illustrator 16.0.0, SVG Export Plug-In . SVG Version: 6.00 Build 0)  -->
<!DOCTYPE svg PUBLIC "-//W3C//DTD SVG 1.1//EN" "http://www.w3.org/Graphics/SVG/1.1/DTD/svg11.dtd">
<svg version="1.1" id="Layer_1" xmlns="http://www.w3.org/2000/svg" xmlns:xlink="http://www.w3.org/1999/xlink" x="0px" y="0px"
	 width="146.825px" height="81px" viewBox="0 0 146.825 81" enable-background="new 0 0 146.825 81" xml:space="preserve">
<g>
	<rect x="37.72" y="39.885" fill="#010101" width="16.871" height="1.233"/>
	
		<rect x="35.253" y="45.846" transform="matrix(0.707 0.7072 -0.7072 0.707 45.6565 -17.2805)" fill="#010101" width="16.862" height="1.233"/>
	
		<rect x="44.06" y="52.667" transform="matrix(0.3842 0.9233 -0.9233 0.3842 80.48 -5.9201)" fill="#010101" width="1.235" height="9.403"/>
	<polygon fill="#010101" points="26.229,52.868 25.359,51.994 37.284,40.066 38.161,40.937 	"/>
	<rect x="20.849" y="39.885" fill="#010101" width="16.875" height="1.233"/>
	
		<rect x="20.245" y="28.837" transform="matrix(0.9235 0.3836 -0.3836 0.9235 14.4529 -5.4392)" fill="#010101" width="1.237" height="9.357"/>
	
		<rect x="30.118" y="18.965" transform="matrix(0.3827 0.9239 -0.9239 0.3827 40.8196 -13.8017)" fill="#010101" width="1.238" height="9.357"/>
	<rect x="37.106" y="23.63" fill="#010101" width="1.23" height="16.868"/>
	
		<rect x="40.023" y="23.022" transform="matrix(0.9239 0.3826 -0.3826 0.9239 12.4473 -15.3055)" fill="#010101" width="9.353" height="1.234"/>
	<g>
		<path fill="#010101" d="M57.475,38.237c-1.25,0-2.263,1.014-2.263,2.261c0,1.25,1.013,2.264,2.263,2.264
			c1.247,0,2.261-1.014,2.261-2.264C59.735,39.251,58.722,38.237,57.475,38.237 M57.475,43.995c-1.929,0-3.501-1.567-3.501-3.497
			c0-1.929,1.572-3.494,3.501-3.494c1.927,0,3.498,1.565,3.498,3.494C60.973,42.428,59.401,43.995,57.475,43.995"/>
		<path fill="#010101" d="M51.688,52.202c-1.247,0-2.263,1.014-2.263,2.264c0,1.247,1.016,2.264,2.263,2.264
			s2.264-1.017,2.264-2.264C53.951,53.216,52.935,52.202,51.688,52.202 M51.688,57.96c-1.929,0-3.494-1.568-3.494-3.494
			c0-1.932,1.565-3.498,3.494-3.498s3.498,1.566,3.498,3.498C55.186,56.392,53.616,57.96,51.688,57.96"/>
		<path fill="#010101" d="M37.724,57.989c-1.251,0-2.268,1.014-2.268,2.261s1.017,2.264,2.268,2.264
			c1.246,0,2.264-1.017,2.264-2.264S38.97,57.989,37.724,57.989 M37.724,63.748c-1.93,0-3.498-1.569-3.498-3.498
			s1.568-3.494,3.498-3.494c1.929,0,3.497,1.565,3.497,3.494S39.652,63.748,37.724,63.748"/>
		<path fill="#010101" d="M23.759,52.202c-1.25,0-2.268,1.014-2.268,2.264c0,1.247,1.018,2.264,2.268,2.264
			c1.246,0,2.267-1.017,2.267-2.264C26.025,53.216,25.005,52.202,23.759,52.202 M23.759,57.96c-1.933,0-3.498-1.568-3.498-3.494
			c0-1.932,1.565-3.498,3.498-3.498c1.929,0,3.498,1.566,3.498,3.498C27.257,56.392,25.688,57.96,23.759,57.96"/>
		<path fill="#010101" d="M17.975,38.237c-1.251,0-2.267,1.014-2.267,2.261c0,1.25,1.016,2.264,2.267,2.264
			c1.243,0,2.261-1.014,2.261-2.264C20.235,39.251,19.218,38.237,17.975,38.237 M17.975,43.995c-1.933,0-3.501-1.567-3.501-3.497
			c0-1.929,1.568-3.494,3.501-3.494c1.923,0,3.497,1.565,3.497,3.494C21.472,42.428,19.897,43.995,17.975,43.995"/>
		<path fill="#010101" d="M23.759,24.271c-1.25,0-2.268,1.016-2.268,2.26c0,1.25,1.018,2.268,2.268,2.268
			c1.246,0,2.267-1.018,2.267-2.268C26.025,25.286,25.005,24.271,23.759,24.271 M23.759,30.031c-1.933,0-3.498-1.568-3.498-3.501
			c0-1.926,1.565-3.49,3.498-3.49c1.929,0,3.498,1.564,3.498,3.49C27.257,28.463,25.688,30.031,23.759,30.031"/>
		<path fill="#010101" d="M37.724,18.486c-1.251,0-2.268,1.013-2.268,2.263c0,1.248,1.017,2.265,2.268,2.265
			c1.246,0,2.264-1.017,2.264-2.265C39.987,19.499,38.97,18.486,37.724,18.486 M37.724,24.247c-1.93,0-3.498-1.568-3.498-3.498
			c0-1.928,1.568-3.497,3.498-3.497c1.929,0,3.497,1.569,3.497,3.497C41.221,22.679,39.652,24.247,37.724,24.247"/>
		<path fill="#010101" d="M51.688,24.271c-1.247,0-2.263,1.016-2.263,2.26c0,1.25,1.016,2.268,2.263,2.268s2.264-1.018,2.264-2.268
			C53.951,25.286,52.935,24.271,51.688,24.271 M51.688,30.031c-1.929,0-3.494-1.568-3.494-3.501c0-1.926,1.565-3.49,3.494-3.49
			s3.498,1.564,3.498,3.49C55.186,28.463,53.616,30.031,51.688,30.031"/>
		<path fill="#010101" d="M71.966,22.721c-0.396,0-0.705,0.107-0.926,0.321c-0.221,0.218-0.334,0.52-0.334,0.916v3.582
			c0,0.825,0.422,1.238,1.273,1.238c0.193,0,0.359-0.02,0.502-0.059c0.144-0.036,0.273-0.088,0.387-0.159
			c0.113-0.065,0.219-0.149,0.322-0.241c0.1-0.1,0.217-0.207,0.338-0.324l0.922,1.098c-0.354,0.37-0.728,0.643-1.121,0.812
			c-0.396,0.173-0.848,0.261-1.35,0.261c-0.857,0-1.547-0.222-2.063-0.663c-0.518-0.445-0.777-1.095-0.777-1.962v-3.582
			c0-0.402,0.068-0.77,0.209-1.094c0.139-0.318,0.334-0.598,0.588-0.822c0.25-0.228,0.549-0.402,0.896-0.522
			c0.34-0.124,0.721-0.186,1.133-0.186c0.299,0,0.578,0.02,0.814,0.062c0.24,0.043,0.459,0.114,0.663,0.215
			c0.198,0.101,0.39,0.23,0.559,0.393c0.175,0.159,0.335,0.352,0.491,0.578l-0.998,0.975c-0.119-0.195-0.309-0.38-0.562-0.559
			C72.674,22.821,72.353,22.731,71.966,22.721"/>
	</g>
	<polygon fill="#010101" points="77.944,26.354 77.944,28.651 80.868,28.651 80.868,30.038 76.431,30.038 76.431,21.461 
		80.656,21.461 80.656,22.848 77.944,22.848 77.944,25.033 80.228,25.033 80.228,26.354 	"/>
	<polygon fill="#010101" points="87.593,21.461 88.983,21.461 88.983,30.038 86.512,30.038 84.304,23.214 84.304,30.038 
		82.913,30.038 82.913,21.461 85.161,21.461 87.593,28.414 	"/>
	<polygon fill="#010101" points="90.675,22.848 90.675,21.461 96.439,21.461 96.439,22.848 94.331,22.848 94.331,30.038 
		92.771,30.038 92.771,22.848 	"/>
	<g>
		<path fill="#010101" d="M99.681,25.17h1.313c0.227,0,0.408-0.059,0.539-0.173c0.133-0.113,0.204-0.292,0.204-0.535v-0.818
			c0-0.27-0.059-0.471-0.175-0.602c-0.121-0.13-0.313-0.194-0.582-0.194h-1.299V25.17z M102.94,25.673
			c-0.242,0.302-0.58,0.543-1.029,0.721l1.684,3.645h-1.596l-1.602-3.481h-0.717v3.481h-1.563v-8.577h2.875
			c0.753,0,1.331,0.179,1.721,0.529c0.393,0.354,0.584,0.906,0.584,1.666v0.818C103.298,24.968,103.181,25.371,102.94,25.673"/>
		<path fill="#010101" d="M109.671,23.955c0-0.394-0.135-0.698-0.395-0.913c-0.27-0.214-0.594-0.321-0.992-0.321h-0.176
			c-0.396,0-0.729,0.107-0.99,0.319c-0.264,0.207-0.4,0.509-0.4,0.905v3.595c0,0.43,0.131,0.744,0.387,0.938
			c0.256,0.198,0.598,0.296,1.017,0.296h0.163c0.432,0,0.766-0.098,1.016-0.296c0.246-0.194,0.371-0.509,0.371-0.938V23.955z
			 M109.439,21.51c0.354,0.12,0.669,0.289,0.933,0.513c0.266,0.221,0.474,0.494,0.633,0.818c0.156,0.325,0.234,0.692,0.234,1.104
			v3.595c0,0.43-0.078,0.806-0.23,1.131c-0.153,0.321-0.357,0.594-0.625,0.818c-0.266,0.224-0.577,0.389-0.935,0.503
			c-0.354,0.114-0.743,0.173-1.165,0.173h-0.163c-0.429,0-0.825-0.056-1.188-0.166s-0.672-0.273-0.939-0.497
			c-0.262-0.224-0.467-0.497-0.619-0.828c-0.143-0.325-0.219-0.704-0.219-1.134v-3.595c0-0.405,0.078-0.767,0.234-1.091
			c0.152-0.322,0.363-0.598,0.631-0.822c0.266-0.221,0.574-0.396,0.935-0.516c0.357-0.124,0.741-0.186,1.153-0.186h0.176
			C108.699,21.331,109.083,21.393,109.439,21.51"/>
		<path fill="#010101" d="M73.427,38.729c0-0.293-0.041-0.546-0.143-0.757c-0.094-0.211-0.227-0.387-0.39-0.517
			c-0.165-0.137-0.354-0.233-0.571-0.292c-0.211-0.059-0.441-0.088-0.689-0.088h-1.281v6.823h1.236c0.588,0,1.043-0.143,1.364-0.432
			c0.317-0.293,0.474-0.698,0.474-1.218V38.729z M71.634,36.192c0.877,0,1.553,0.227,2.023,0.678
			c0.471,0.455,0.702,1.076,0.702,1.858v3.521c0,0.455-0.068,0.844-0.208,1.166c-0.137,0.321-0.328,0.584-0.572,0.789
			c-0.242,0.197-0.529,0.348-0.869,0.438c-0.335,0.094-0.705,0.143-1.111,0.143h-2.182v-8.593H71.634z"/>
	</g>
	<polygon fill="#010101" points="77.808,40.823 77.808,43.889 80.909,43.889 80.909,44.772 76.876,44.772 76.876,36.192 
		80.669,36.192 80.669,37.075 77.808,37.075 77.808,39.962 80.218,39.962 80.218,40.823 	"/>
	<g>
		<path fill="#010101" d="M85.638,37.455c-0.393,0-0.701,0.107-0.926,0.318c-0.224,0.218-0.334,0.522-0.334,0.919v3.579
			c0,0.825,0.426,1.237,1.276,1.237c0.192,0,0.356-0.02,0.503-0.059c0.146-0.035,0.27-0.088,0.387-0.156
			c0.113-0.068,0.221-0.148,0.318-0.246c0.104-0.094,0.215-0.201,0.344-0.322l0.92,1.098c-0.357,0.371-0.729,0.644-1.124,0.815
			s-0.845,0.257-1.348,0.257c-0.857,0-1.546-0.221-2.065-0.662c-0.514-0.442-0.779-1.095-0.779-1.962v-3.579
			c0-0.406,0.071-0.77,0.215-1.094c0.136-0.322,0.334-0.598,0.584-0.826c0.254-0.227,0.553-0.402,0.896-0.521
			c0.341-0.124,0.721-0.183,1.133-0.183c0.306,0,0.578,0.02,0.815,0.059c0.241,0.046,0.462,0.113,0.663,0.218
			c0.201,0.098,0.389,0.23,0.561,0.39c0.173,0.159,0.336,0.354,0.488,0.581l-0.998,0.971c-0.119-0.194-0.305-0.379-0.561-0.555
			C86.347,37.553,86.028,37.462,85.638,37.455"/>
		<path fill="#010101" d="M94.521,36.192h1.563v5.991c0,0.444-0.068,0.835-0.222,1.173c-0.146,0.337-0.347,0.617-0.61,0.848
			c-0.26,0.227-0.572,0.399-0.939,0.516c-0.363,0.121-0.771,0.176-1.217,0.176s-0.852-0.055-1.215-0.169
			c-0.367-0.114-0.686-0.282-0.948-0.51s-0.468-0.513-0.614-0.854c-0.143-0.341-0.211-0.734-0.211-1.179v-5.991h1.563v5.991
			c0,0.455,0.127,0.79,0.373,1.003c0.247,0.215,0.592,0.322,1.039,0.322c0.445,0,0.797-0.107,1.053-0.322
			c0.26-0.213,0.387-0.548,0.387-1.003V36.192z"/>
	</g>
	<polygon fill="#010101" points="99.995,36.192 99.995,43.382 103.175,43.382 103.175,44.769 98.481,44.769 98.481,36.192 	"/>
	<polygon fill="#010101" points="103.363,37.582 103.363,36.195 109.132,36.195 109.132,37.582 107.021,37.582 107.021,44.769 
		105.458,44.769 105.458,37.582 	"/>
	<g>
		<path fill="#010101" d="M115.236,36.192h1.562v5.991c0,0.444-0.07,0.835-0.221,1.173c-0.148,0.337-0.35,0.617-0.613,0.848
			c-0.26,0.227-0.572,0.399-0.938,0.516c-0.364,0.121-0.771,0.176-1.218,0.176c-0.448,0-0.852-0.055-1.215-0.169
			c-0.367-0.114-0.682-0.282-0.948-0.51c-0.263-0.228-0.468-0.513-0.614-0.854c-0.139-0.341-0.211-0.734-0.211-1.179v-5.991h1.566
			v5.991c0,0.455,0.123,0.79,0.366,1.003c0.251,0.215,0.598,0.322,1.042,0.322c0.445,0,0.797-0.107,1.053-0.322
			c0.264-0.213,0.39-0.548,0.39-1.003V36.192z"/>
		<path fill="#010101" d="M120.747,39.9h1.313c0.227,0,0.409-0.059,0.543-0.169c0.133-0.116,0.201-0.292,0.201-0.539v-0.818
			c0-0.27-0.059-0.467-0.176-0.598c-0.12-0.13-0.314-0.197-0.582-0.197h-1.299V39.9z M124.009,40.404
			c-0.24,0.302-0.586,0.546-1.029,0.721l1.678,3.644h-1.588l-1.604-3.481h-0.719v3.481h-1.564v-8.576h2.877
			c0.757,0,1.332,0.178,1.722,0.529c0.39,0.354,0.588,0.909,0.588,1.666v0.821C124.369,39.702,124.249,40.103,124.009,40.404"/>
	</g>
	<path fill="#010101" d="M129.941,41.476l-0.792-3.719l-0.809,3.719H129.941z M130.12,36.166l2.231,8.606h-1.589l-0.493-2.033
		h-2.254l-0.507,2.033h-1.604l2.296-8.606H130.12z"/>
	<g>
		<path fill="#010101" d="M73.203,53.537c0-0.429-0.11-0.74-0.338-0.935c-0.228-0.195-0.556-0.293-0.991-0.293h-0.951v5.82h0.852
			c0.426,0,0.77-0.102,1.033-0.296c0.262-0.198,0.396-0.513,0.396-0.942V53.537z M71.878,50.923c0.883,0,1.578,0.218,2.082,0.646
			s0.76,1.085,0.76,1.968v3.354c0,0.923-0.264,1.595-0.779,2.008c-0.52,0.412-1.238,0.617-2.163,0.617h-2.37v-8.594H71.878z"/>
	</g>
	<rect x="77.292" y="50.923" fill="#010101" width="1.563" height="8.58"/>
	<g>
		<path fill="#010101" d="M84.216,54.759h2.9v3.783c-0.403,0.357-0.832,0.623-1.287,0.809c-0.454,0.186-0.938,0.275-1.461,0.275
			c-0.422,0-0.813-0.055-1.169-0.165c-0.357-0.114-0.665-0.286-0.926-0.507c-0.263-0.225-0.468-0.496-0.614-0.828
			c-0.148-0.328-0.221-0.701-0.221-1.12v-3.582c0-0.406,0.072-0.767,0.229-1.091c0.148-0.326,0.354-0.602,0.616-0.828
			c0.263-0.229,0.571-0.4,0.929-0.523s0.737-0.182,1.143-0.182c0.596,0,1.102,0.104,1.518,0.314
			c0.418,0.211,0.779,0.517,1.078,0.919l-0.968,1.071c-0.214-0.239-0.458-0.457-0.737-0.643c-0.283-0.186-0.578-0.275-0.891-0.275
			c-0.398,0-0.73,0.109-0.996,0.328c-0.27,0.217-0.402,0.52-0.402,0.909v3.582c0,0.419,0.127,0.73,0.383,0.935
			c0.256,0.202,0.598,0.299,1.023,0.299c0.243,0,0.454-0.022,0.639-0.062c0.18-0.042,0.374-0.143,0.576-0.302v-1.854h-1.361V54.759z
			"/>
	</g>
	<rect x="89.778" y="50.923" fill="#010101" width="1.563" height="8.58"/>
	<polygon fill="#010101" points="93.487,52.313 93.487,50.927 99.252,50.927 99.252,52.313 97.144,52.313 97.144,59.503 
		95.582,59.503 95.582,52.313 	"/>
	<path fill="#010101" d="M103.792,56.21l-0.795-3.722l-0.807,3.722H103.792z M103.971,50.9l2.231,8.603h-1.592l-0.49-2.029h-2.254
		l-0.506,2.029h-1.602l2.293-8.603H103.971z"/>
	<polygon fill="#010101" points="109.53,50.923 109.53,58.116 112.714,58.116 112.714,59.499 108.017,59.499 108.017,50.923 	"/>
</g>
<g>
</g>
<g>
</g>
<g>
</g>
<g>
</g>
<g>
</g>
<g>
</g>
</svg>
