<?xml version="1.0" encoding="UTF-8" standalone="no"?>
<!-- Generator: Adobe Illustrator 16.0.0, SVG Export Plug-In . SVG Version: 6.00 Build 0)  -->

<svg
   xmlns:dc="http://purl.org/dc/elements/1.1/"
   xmlns:cc="http://creativecommons.org/ns#"
   xmlns:rdf="http://www.w3.org/1999/02/22-rdf-syntax-ns#"
   xmlns:svg="http://www.w3.org/2000/svg"
   xmlns="http://www.w3.org/2000/svg"
   xmlns:sodipodi="http://sodipodi.sourceforge.net/DTD/sodipodi-0.dtd"
   xmlns:inkscape="http://www.inkscape.org/namespaces/inkscape"
   version="1.1"
   id="Layer_1"
   x="0px"
   y="0px"
   width="146.825px"
   height="81px"
   viewBox="0 0 146.825 81"
   enable-background="new 0 0 146.825 81"
   xml:space="preserve"
   sodipodi:docname="logotipo_grafico.svg"
   inkscape:version="0.92.3 (2405546, 2018-03-11)"><metadata
   id="metadata284"><rdf:RDF><cc:Work
       rdf:about=""><dc:format>image/svg+xml</dc:format><dc:type
         rdf:resource="http://purl.org/dc/dcmitype/StillImage" /><dc:title></dc:title></cc:Work></rdf:RDF></metadata><defs
   id="defs282">
	
	
		
	
		
	
	
	
		
	
		
	
	
		
	
	
	
	
	
	
	
	
	
	
	
	
	
	
	
	
	
	

		
		
		
		
		
		
		
		
		
	
		
		
	</defs><sodipodi:namedview
   pagecolor="#ffffff"
   bordercolor="#666666"
   borderopacity="1"
   objecttolerance="10"
   gridtolerance="10"
   guidetolerance="10"
   inkscape:pageopacity="0"
   inkscape:pageshadow="2"
   inkscape:window-width="1920"
   inkscape:window-height="1025"
   id="namedview280"
   showgrid="false"
   inkscape:zoom="9.5487828"
   inkscape:cx="16.625392"
   inkscape:cy="40.5"
   inkscape:window-x="0"
   inkscape:window-y="27"
   inkscape:window-maximized="1"
   inkscape:current-layer="Layer_1" />
<rect
   style="fill:#010101"
   id="rect175"
   height="1.233"
   width="16.871"
   y="39.884998"
   x="37.720001" /><rect
   style="fill:#010101;stroke-width:0.9999904"
   id="rect177"
   height="1.2329882"
   width="16.861837"
   transform="rotate(45.008103)"
   y="1.3395448"
   x="55.31123" /><rect
   style="fill:#010101;stroke-width:1.00004625"
   id="rect179"
   height="9.4034348"
   width="1.2350571"
   transform="rotate(67.407019)"
   y="-23.908707"
   x="69.515251" /><polygon
   style="fill:#010101"
   id="polygon181"
   points="37.284,40.066 38.161,40.937 26.229,52.868 25.359,51.994 " /><rect
   style="fill:#010101"
   id="rect183"
   height="1.233"
   width="16.875"
   y="39.884998"
   x="20.849001" /><rect
   style="fill:#010101"
   id="rect185"
   height="9.3570061"
   width="1.2370007"
   transform="rotate(22.55684)"
   y="18.269791"
   x="31.505783" /><rect
   style="fill:#010101;stroke-width:1.00002527"
   id="rect187"
   height="9.3572369"
   width="1.2380313"
   transform="rotate(67.499572)"
   y="-24.028574"
   x="32.988956" /><rect
   style="fill:#010101"
   id="rect189"
   height="16.868"
   width="1.23"
   y="23.629999"
   x="37.105999" /><rect
   style="fill:#010101;stroke-width:0.99998701"
   id="rect191"
   height="1.2339839"
   width="9.3528776"
   transform="rotate(22.495135)"
   y="4.1183653"
   x="45.666729" /><path
   d="m 57.475,38.237 c -1.25,0 -2.263,1.014 -2.263,2.261 0,1.25 1.013,2.264 2.263,2.264 1.247,0 2.261,-1.014 2.261,-2.264 -10e-4,-1.247 -1.014,-2.261 -2.261,-2.261 m 0,5.758 c -1.929,0 -3.501,-1.567 -3.501,-3.497 0,-1.929 1.572,-3.494 3.501,-3.494 1.927,0 3.498,1.565 3.498,3.494 0,1.93 -1.572,3.497 -3.498,3.497"
   id="path193"
   inkscape:connector-curvature="0"
   style="fill:#010101" /><path
   d="m 51.688,52.202 c -1.247,0 -2.263,1.014 -2.263,2.264 0,1.247 1.016,2.264 2.263,2.264 1.247,0 2.264,-1.017 2.264,-2.264 -10e-4,-1.25 -1.017,-2.264 -2.264,-2.264 m 0,5.758 c -1.929,0 -3.494,-1.568 -3.494,-3.494 0,-1.932 1.565,-3.498 3.494,-3.498 1.929,0 3.498,1.566 3.498,3.498 0,1.926 -1.57,3.494 -3.498,3.494"
   id="path195"
   inkscape:connector-curvature="0"
   style="fill:#010101" /><path
   d="m 37.724,57.989 c -1.251,0 -2.268,1.014 -2.268,2.261 0,1.247 1.017,2.264 2.268,2.264 1.246,0 2.264,-1.017 2.264,-2.264 0,-1.247 -1.018,-2.261 -2.264,-2.261 m 0,5.759 c -1.93,0 -3.498,-1.569 -3.498,-3.498 0,-1.929 1.568,-3.494 3.498,-3.494 1.929,0 3.497,1.565 3.497,3.494 0,1.929 -1.569,3.498 -3.497,3.498"
   id="path197"
   inkscape:connector-curvature="0"
   style="fill:#010101" /><path
   d="m 23.759,52.202 c -1.25,0 -2.268,1.014 -2.268,2.264 0,1.247 1.018,2.264 2.268,2.264 1.246,0 2.267,-1.017 2.267,-2.264 -0.001,-1.25 -1.021,-2.264 -2.267,-2.264 m 0,5.758 c -1.933,0 -3.498,-1.568 -3.498,-3.494 0,-1.932 1.565,-3.498 3.498,-3.498 1.929,0 3.498,1.566 3.498,3.498 0,1.926 -1.569,3.494 -3.498,3.494"
   id="path199"
   inkscape:connector-curvature="0"
   style="fill:#010101" /><path
   d="m 17.975,38.237 c -1.251,0 -2.267,1.014 -2.267,2.261 0,1.25 1.016,2.264 2.267,2.264 1.243,0 2.261,-1.014 2.261,-2.264 -0.001,-1.247 -1.018,-2.261 -2.261,-2.261 m 0,5.758 c -1.933,0 -3.501,-1.567 -3.501,-3.497 0,-1.929 1.568,-3.494 3.501,-3.494 1.923,0 3.497,1.565 3.497,3.494 0,1.93 -1.575,3.497 -3.497,3.497"
   id="path201"
   inkscape:connector-curvature="0"
   style="fill:#010101" /><path
   d="m 23.759,24.271 c -1.25,0 -2.268,1.016 -2.268,2.26 0,1.25 1.018,2.268 2.268,2.268 1.246,0 2.267,-1.018 2.267,-2.268 -0.001,-1.245 -1.021,-2.26 -2.267,-2.26 m 0,5.76 c -1.933,0 -3.498,-1.568 -3.498,-3.501 0,-1.926 1.565,-3.49 3.498,-3.49 1.929,0 3.498,1.564 3.498,3.49 0,1.933 -1.569,3.501 -3.498,3.501"
   id="path203"
   inkscape:connector-curvature="0"
   style="fill:#010101" /><path
   d="m 37.724,18.486 c -1.251,0 -2.268,1.013 -2.268,2.263 0,1.248 1.017,2.265 2.268,2.265 1.246,0 2.264,-1.017 2.264,-2.265 -10e-4,-1.25 -1.018,-2.263 -2.264,-2.263 m 0,5.761 c -1.93,0 -3.498,-1.568 -3.498,-3.498 0,-1.928 1.568,-3.497 3.498,-3.497 1.929,0 3.497,1.569 3.497,3.497 0,1.93 -1.569,3.498 -3.497,3.498"
   id="path205"
   inkscape:connector-curvature="0"
   style="fill:#010101" /><path
   d="m 51.688,24.271 c -1.247,0 -2.263,1.016 -2.263,2.26 0,1.25 1.016,2.268 2.263,2.268 1.247,0 2.264,-1.018 2.264,-2.268 -10e-4,-1.245 -1.017,-2.26 -2.264,-2.26 m 0,5.76 c -1.929,0 -3.494,-1.568 -3.494,-3.501 0,-1.926 1.565,-3.49 3.494,-3.49 1.929,0 3.498,1.564 3.498,3.49 0,1.933 -1.57,3.501 -3.498,3.501"
   id="path207"
   inkscape:connector-curvature="0"
   style="fill:#010101" /><path
   d="m 71.966,22.721 c -0.396,0 -0.705,0.107 -0.926,0.321 -0.221,0.218 -0.334,0.52 -0.334,0.916 v 3.582 c 0,0.825 0.422,1.238 1.273,1.238 0.193,0 0.359,-0.02 0.502,-0.059 0.144,-0.036 0.273,-0.088 0.387,-0.159 0.113,-0.065 0.219,-0.149 0.322,-0.241 0.1,-0.1 0.217,-0.207 0.338,-0.324 l 0.922,1.098 c -0.354,0.37 -0.728,0.643 -1.121,0.812 -0.396,0.173 -0.848,0.261 -1.35,0.261 -0.857,0 -1.547,-0.222 -2.063,-0.663 -0.518,-0.445 -0.777,-1.095 -0.777,-1.962 v -3.582 c 0,-0.402 0.068,-0.77 0.209,-1.094 0.139,-0.318 0.334,-0.598 0.588,-0.822 0.25,-0.228 0.549,-0.402 0.896,-0.522 0.34,-0.124 0.721,-0.186 1.133,-0.186 0.299,0 0.578,0.02 0.814,0.062 0.24,0.043 0.459,0.114 0.663,0.215 0.198,0.101 0.39,0.23 0.559,0.393 0.175,0.159 0.335,0.352 0.491,0.578 l -0.998,0.975 c -0.119,-0.195 -0.309,-0.38 -0.562,-0.559 -0.258,-0.178 -0.579,-0.268 -0.966,-0.278"
   id="path209"
   inkscape:connector-curvature="0"
   style="fill:#010101" /><path
   d="m 71.638,37.455 c -0.393,0 -0.701,0.107 -0.926,0.318 -0.224,0.218 -0.334,0.522 -0.334,0.919 v 3.579 c 0,0.825 0.426,1.237 1.276,1.237 0.192,0 0.356,-0.02 0.503,-0.059 0.146,-0.035 0.27,-0.088 0.387,-0.156 0.113,-0.068 0.221,-0.148 0.318,-0.246 0.104,-0.094 0.215,-0.201 0.344,-0.322 l 0.92,1.098 c -0.357,0.371 -0.729,0.644 -1.124,0.815 -0.395,0.171 -0.845,0.257 -1.348,0.257 -0.857,0 -1.546,-0.221 -2.065,-0.662 -0.514,-0.442 -0.779,-1.095 -0.779,-1.962 v -3.579 c 0,-0.406 0.071,-0.77 0.215,-1.094 0.136,-0.322 0.334,-0.598 0.584,-0.826 0.254,-0.227 0.553,-0.402 0.896,-0.521 0.341,-0.124 0.721,-0.183 1.133,-0.183 0.306,0 0.578,0.02 0.815,0.059 0.241,0.046 0.462,0.113 0.663,0.218 0.201,0.098 0.389,0.23 0.561,0.39 0.173,0.159 0.336,0.354 0.488,0.581 l -0.998,0.971 c -0.119,-0.194 -0.305,-0.379 -0.561,-0.555 -0.259,-0.179 -0.578,-0.27 -0.968,-0.277"
   id="path229"
   inkscape:connector-curvature="0"
   style="fill:#010101" /><g
   id="g249">
		<path
   style="fill:#010101"
   inkscape:connector-curvature="0"
   id="path247"
   d="m 73.203,53.537 c 0,-0.429 -0.11,-0.74 -0.338,-0.935 -0.228,-0.195 -0.556,-0.293 -0.991,-0.293 h -0.951 v 5.82 h 0.852 c 0.426,0 0.77,-0.102 1.033,-0.296 0.262,-0.198 0.396,-0.513 0.396,-0.942 v -3.354 z m -1.325,-2.614 c 0.883,0 1.578,0.218 2.082,0.646 0.504,0.428 0.76,1.085 0.76,1.968 v 3.354 c 0,0.923 -0.264,1.595 -0.779,2.008 -0.52,0.412 -1.238,0.617 -2.163,0.617 h -2.37 v -8.594 h 2.47 z" />
	</g>
<g
   id="g267">
</g>
<g
   id="g269">
</g>
<g
   id="g271">
</g>
<g
   id="g273">
</g>
<g
   id="g275">
</g>
<g
   id="g277">
</g>
</svg>